<?xml version="1.0" encoding="iso-8859-1"?>
<!-- Generator: Adobe Illustrator 19.0.0, SVG Export Plug-In . SVG Version: 6.00 Build 0)  -->
<svg version="1.1" id="Layer_1" xmlns="http://www.w3.org/2000/svg" xmlns:xlink="http://www.w3.org/1999/xlink" x="0px" y="0px"
	 viewBox="0 0 512 512" style="enable-background:new 0 0 512 512;" xml:space="preserve">
<path style="fill:#DFCCBE;" d="M494.111,217.569c0,59.611-41.681,107.395-97.426,115.001V512h-281.37V332.57
	c-55.745-7.607-97.426-55.39-97.426-115.001c0-30.532,11.755-59.35,33.113-81.157c18.463-18.85,42.308-30.657,68.127-33.938
	C136.714,42.433,192.47,0,256,0s119.286,42.433,136.871,102.473c25.819,3.281,49.664,15.088,68.127,33.938
	C482.346,158.218,494.111,187.037,494.111,217.569z"/>
<path style="fill:#C9AD91;" d="M494.111,217.569c0,59.611-41.681,107.395-97.426,115.001V512H256V0
	c63.53,0,119.286,42.433,136.871,102.473c25.819,3.281,49.664,15.088,68.127,33.938
	C482.346,158.218,494.111,187.037,494.111,217.569z"/>
<polygon style="fill:#8A6746;" points="396.685,398.879 396.685,430.226 115.315,430.226 115.315,398.879 163.004,398.879 
	163.004,334.367 194.351,334.367 194.351,398.879 240.327,398.879 240.327,334.367 271.673,334.367 271.673,398.879 
	318.516,398.879 318.516,334.367 349.863,334.367 349.863,398.879 "/>
<polygon style="fill:#664B33;" points="396.685,398.879 396.685,430.226 256,430.226 256,334.367 271.673,334.367 271.673,398.879 
	318.516,398.879 318.516,334.367 349.863,334.367 349.863,398.879 "/>
<g>
</g>
<g>
</g>
<g>
</g>
<g>
</g>
<g>
</g>
<g>
</g>
<g>
</g>
<g>
</g>
<g>
</g>
<g>
</g>
<g>
</g>
<g>
</g>
<g>
</g>
<g>
</g>
<g>
</g>
</svg>
