<?xml version="1.0" encoding="iso-8859-1"?>
<!-- Generator: Adobe Illustrator 19.0.0, SVG Export Plug-In . SVG Version: 6.00 Build 0)  -->
<svg version="1.1" id="Layer_1" xmlns="http://www.w3.org/2000/svg" xmlns:xlink="http://www.w3.org/1999/xlink" x="0px" y="0px"
	 viewBox="0 0 512 512" style="enable-background:new 0 0 512 512;" xml:space="preserve">
<g>
	<path style="fill:#8A6746;" d="M232.948,308.801v55.836c0,43.509-32.428,79.589-74.378,85.333
		c-3.851,0.534-7.775,0.806-11.761,0.806h-11.416c-2.197,0-4.374-0.084-6.54-0.241c-44.451-3.359-79.599-40.6-79.599-85.898v-55.836
		c0-46.711,37.356-84.842,83.764-86.097c0.785-0.031,1.58-0.042,2.375-0.042h11.416c4.562,0,9.03,0.356,13.404,1.046
		C201.368,230.165,232.948,265.857,232.948,308.801z"/>
	<path style="fill:#8A6746;" d="M462.746,370.025v55.836c0,44.587-34.06,81.378-77.517,85.71c-2.836,0.283-5.713,0.429-8.622,0.429
		h-11.406c-3.558,0-7.074-0.22-10.516-0.638c-42.567-5.201-75.633-41.563-75.633-85.501v-55.836c0-45.529,35.504-82.916,80.29-85.94
		c1.936-0.136,3.893-0.199,5.86-0.199h11.406c3.181,0,6.331,0.178,9.428,0.523C429.115,289.108,462.746,325.711,462.746,370.025z"/>
	<path style="fill:#8A6746;" d="M407.528,86.139v55.836c0,41.782-29.895,76.711-69.407,84.507
		c-5.41,1.078-11.008,1.643-16.732,1.643h-11.416c-2.365,0-4.709-0.094-7.032-0.293c-44.221-3.579-79.107-40.715-79.107-85.857
		V86.139c0-46.449,36.959-84.433,83.01-86.076C307.88,0.021,308.927,0,309.973,0h11.416c4.531,0,8.989,0.356,13.331,1.036
		C375.906,7.461,407.528,43.174,407.528,86.139z"/>
</g>
<g>
	<path style="fill:#664B33;" d="M232.948,308.801v55.836c0,43.509-32.428,79.589-74.378,85.333
		c-3.851,0.534-7.775,0.806-11.761,0.806h-11.416c-2.197,0-4.374-0.084-6.54-0.241c-10.296-11.761-21.493-29.069-23.659-50.258
		c-2.386-23.397,6.592-46.177,26.683-67.702c22.738-24.35,29.749-50.248,20.834-76.952c-5.881-17.621-16.753-29.833-19.693-32.92
		c0.785-0.031,1.58-0.042,2.375-0.042h11.416c4.562,0,9.03,0.356,13.404,1.046C201.368,230.165,232.948,265.857,232.948,308.801z"/>
	<path style="fill:#664B33;" d="M462.746,370.025v55.836c0,44.587-34.06,81.378-77.517,85.71c-2.836,0.283-5.713,0.429-8.622,0.429
		h-11.406c-3.558,0-7.074-0.22-10.516-0.638c-10.202-11.751-21.179-28.901-23.324-49.861c-2.396-23.397,6.582-46.177,26.683-67.702
		c22.738-24.35,29.749-50.248,20.834-76.952c-5.797-17.349-16.418-29.456-19.536-32.763c1.936-0.136,3.893-0.199,5.86-0.199h11.406
		c3.181,0,6.331,0.178,9.428,0.523C429.115,289.108,462.746,325.711,462.746,370.025z"/>
	<path style="fill:#664B33;" d="M407.528,86.139v55.836c0,41.782-29.895,76.711-69.407,84.507
		c-5.41,1.078-11.008,1.643-16.732,1.643h-11.416c-2.365,0-4.709-0.094-7.032-0.293c-9.784-11.678-19.881-28.211-21.932-48.228
		c-2.396-23.408,6.582-46.188,26.683-67.712c22.738-24.35,29.749-50.237,20.834-76.952c-6.812-20.394-20.3-33.547-20.436-33.673
		l-1.245-1.203C307.88,0.021,308.927,0,309.973,0h11.416c4.531,0,8.989,0.356,13.331,1.036
		C375.906,7.461,407.528,43.174,407.528,86.139z"/>
</g>
<g>
	<path style="fill:#DFCCBE;" d="M301.811,177.353c-1.706-17.088,5.42-34.301,21.179-51.179
		c35.347-37.848,33.317-74.106,25.385-97.859c-2.333-6.99-8.779-18.919-13.655-27.279C330.378,0.356,325.92,0,321.389,0h-11.416
		c-1.046,0-2.093,0.021-3.129,0.063l1.245,1.203c0.136,0.126,13.624,13.279,20.436,33.673c8.915,26.714,1.904,52.602-20.834,76.952
		c-20.101,21.524-29.079,44.304-26.683,67.712c2.051,20.018,12.149,36.551,21.932,48.228c2.323,0.199,4.667,0.293,7.032,0.293
		h11.416c5.724,0,11.322-0.565,16.732-1.643c-2.051,0.303-4.091,0.596-6.121,0.889C324.214,220.862,304.27,201.964,301.811,177.353z
		"/>
	<path style="fill:#DFCCBE;" d="M158.57,449.97c-3.851,0.534-7.775,0.806-11.761,0.806h-11.416c-2.197,0-4.374-0.084-6.54-0.241
		c-10.296-11.761-21.493-29.069-23.659-50.258c-2.386-23.397,6.592-46.177,26.683-67.702c22.738-24.35,29.749-50.248,20.834-76.952
		c-5.881-17.621-16.753-29.833-19.693-32.92c0.785-0.031,1.58-0.042,2.375-0.042h11.416c4.562,0,9.03,0.356,13.404,1.046
		c4.405,6.76,9.02,15.319,12.347,25.291c7.932,23.743,9.962,60-25.385,97.859c-15.79,16.91-22.916,34.165-21.158,51.294
		C128.874,426.196,154.019,446.506,158.57,449.97z"/>
	<path style="fill:#DFCCBE;" d="M385.23,511.571c-2.836,0.283-5.713,0.429-8.622,0.429h-11.406c-3.558,0-7.074-0.22-10.516-0.638
		c-10.202-11.751-21.179-28.901-23.324-49.861c-2.396-23.397,6.582-46.177,26.683-67.702c22.738-24.35,29.749-50.248,20.834-76.952
		c-5.797-17.349-16.418-29.456-19.536-32.763c1.936-0.136,3.893-0.199,5.86-0.199h11.406c3.181,0,6.331,0.178,9.428,0.523
		c4.51,6.833,9.282,15.581,12.693,25.815c7.932,23.743,9.962,60-25.385,97.859c-15.759,16.868-22.885,34.091-21.179,51.169
		C355.083,488.393,382.488,509.52,385.23,511.571z"/>
</g>
<g>
</g>
<g>
</g>
<g>
</g>
<g>
</g>
<g>
</g>
<g>
</g>
<g>
</g>
<g>
</g>
<g>
</g>
<g>
</g>
<g>
</g>
<g>
</g>
<g>
</g>
<g>
</g>
<g>
</g>
</svg>
