<?xml version="1.0" encoding="iso-8859-1"?>
<!-- Generator: Adobe Illustrator 19.0.0, SVG Export Plug-In . SVG Version: 6.00 Build 0)  -->
<svg version="1.1" id="Layer_1" xmlns="http://www.w3.org/2000/svg" xmlns:xlink="http://www.w3.org/1999/xlink" x="0px" y="0px"
	 viewBox="0 0 512.004 512.004" style="enable-background:new 0 0 512.004 512.004;" xml:space="preserve">
<path style="fill:#8A6746;" d="M417.663,13.441c-40.73,6.227-71.373,20.186-94.428,37.516c-27.338-5.948-68.649,0.385-77.506,1.871
	l5.353,31.891c11.489-1.928,27.282-3.582,41.384-3.84c-11.583,14.552-19.749,29.678-25.496,43.62
	c-18.868,45.77-17.619,114.595-17.487,116.368l32.247-2.415c-0.026-0.357-0.84-62.872,15.137-101.63
	c21.079-51.134,63.364-81.889,125.683-91.416L417.663,13.441z"/>
<path style="fill:#FF3D63;" d="M177.628,239.66c0,24.296-19.704,43.99-43.99,43.99c-24.296,0-43.99-19.693-43.99-43.99
	s19.693-43.99,43.99-43.99C157.923,195.67,177.628,215.364,177.628,239.66z"/>
<path style="fill:#FF0335;" d="M177.628,239.66c0,24.296-19.704,43.99-43.99,43.99v-87.978
	C157.923,195.67,177.628,215.364,177.628,239.66z"/>
<path style="fill:#FF3D63;" d="M221.617,315.831c0,24.296-19.704,43.99-43.99,43.99c-24.296,0-43.99-19.693-43.99-43.99
	s19.693-43.99,43.99-43.99C201.913,271.842,221.617,291.535,221.617,315.831z"/>
<path style="fill:#FF0335;" d="M221.617,315.831c0,24.296-19.704,43.99-43.99,43.99v-87.978
	C201.913,271.842,221.617,291.535,221.617,315.831z"/>
<path style="fill:#FF3D63;" d="M309.596,315.831c0,24.296-19.704,43.99-43.99,43.99c-24.296,0-43.99-19.693-43.99-43.99
	s19.693-43.99,43.99-43.99C289.892,271.842,309.596,291.535,309.596,315.831z"/>
<path style="fill:#FF0335;" d="M309.596,315.831c0,24.296-19.704,43.99-43.99,43.99v-87.978
	C289.892,271.842,309.596,291.535,309.596,315.831z"/>
<path style="fill:#FF3D63;" d="M397.575,315.831c0,24.296-19.704,43.99-43.99,43.99c-24.296,0-43.99-19.693-43.99-43.99
	s19.693-43.99,43.99-43.99C377.87,271.842,397.575,291.535,397.575,315.831z"/>
<path style="fill:#FF0335;" d="M397.575,315.831c0,24.296-19.704,43.99-43.99,43.99v-87.978
	C377.87,271.842,397.575,291.535,397.575,315.831z"/>
<path style="fill:#FF3D63;" d="M265.606,392.003c0,24.296-19.704,43.99-43.99,43.99c-24.296,0-43.99-19.693-43.99-43.99
	s19.693-43.99,43.99-43.99C245.902,348.014,265.606,367.708,265.606,392.003z"/>
<path style="fill:#FF0335;" d="M265.606,392.003c0,24.296-19.704,43.99-43.99,43.99v-87.978
	C245.902,348.014,265.606,367.708,265.606,392.003z"/>
<path style="fill:#FF3D63;" d="M353.585,392.003c0,24.296-19.704,43.99-43.99,43.99c-24.296,0-43.99-19.693-43.99-43.99
	s19.693-43.99,43.99-43.99C333.881,348.014,353.585,367.708,353.585,392.003z"/>
<path style="fill:#FF0335;" d="M353.585,392.003c0,24.296-19.704,43.99-43.99,43.99v-87.978
	C333.881,348.014,353.585,367.708,353.585,392.003z"/>
<path style="fill:#FF3D63;" d="M309.596,468.014c0,24.296-19.704,43.99-43.99,43.99c-24.296,0-43.99-19.693-43.99-43.99
	s19.693-43.99,43.99-43.99C289.892,424.024,309.596,443.717,309.596,468.014z"/>
<path style="fill:#FF0335;" d="M309.596,468.014c0,24.296-19.704,43.99-43.99,43.99v-87.978
	C289.892,424.024,309.596,443.717,309.596,468.014z"/>
<path style="fill:#FF3D63;" d="M265.606,239.66c0,24.296-19.704,43.99-43.99,43.99c-24.296,0-43.99-19.693-43.99-43.99
	s19.693-43.99,43.99-43.99C245.902,195.67,265.606,215.364,265.606,239.66z"/>
<path style="fill:#FF0335;" d="M265.606,239.66c0,24.296-19.704,43.99-43.99,43.99v-87.978
	C245.902,195.67,265.606,215.364,265.606,239.66z"/>
<path style="fill:#FF3D63;" d="M353.585,239.66c0,24.296-19.704,43.99-43.99,43.99c-24.296,0-43.99-19.693-43.99-43.99
	s19.693-43.99,43.99-43.99C333.881,195.67,353.585,215.364,353.585,239.66z"/>
<path style="fill:#FF0335;" d="M353.585,239.66c0,24.296-19.704,43.99-43.99,43.99v-87.978
	C333.881,195.67,353.585,215.364,353.585,239.66z"/>
<path style="fill:#FF3D63;" d="M441.563,239.66c0,24.296-19.704,43.99-43.99,43.99c-24.296,0-43.99-19.693-43.99-43.99
	s19.693-43.99,43.99-43.99C421.859,195.67,441.563,215.364,441.563,239.66z"/>
<path style="fill:#FF0335;" d="M441.563,239.66c0,24.296-19.704,43.99-43.99,43.99v-87.978
	C421.859,195.67,441.563,215.364,441.563,239.66z"/>
<path style="fill:#00AD94;" d="M258.093,106.754c-5.239,20.782-20.362,49.292-62.723,67.078l-21.159,8.892l-1.509-27.788
	c-21.084,1.962-55.479-1.681-93.39-33.167l-8.839-7.33l-0.032-0.032l4.074-10.779c17.408-46.092,45.519-66.259,64.825-74.969
	L126.913,3.747l22.798-2.717c45.616-5.465,72.856,11.857,87.666,27.336c15.867,16.589,20.89,34.31,21.407,36.272
	C259.301,66.613,263.698,84.495,258.093,106.754z"/>
<path style="fill:#008878;" d="M258.093,106.754c-5.239,20.782-20.362,49.292-62.723,67.078l-21.159,8.892l-1.509-27.788
	c-21.084,1.962-55.479-1.681-93.39-33.167l-8.839-7.33l188.31-49.799C259.301,66.613,263.698,84.495,258.093,106.754z"/>
<g>
</g>
<g>
</g>
<g>
</g>
<g>
</g>
<g>
</g>
<g>
</g>
<g>
</g>
<g>
</g>
<g>
</g>
<g>
</g>
<g>
</g>
<g>
</g>
<g>
</g>
<g>
</g>
<g>
</g>
</svg>
