<?xml version="1.0" encoding="iso-8859-1"?>
<!-- Generator: Adobe Illustrator 19.0.0, SVG Export Plug-In . SVG Version: 6.00 Build 0)  -->
<svg version="1.1" id="Layer_1" xmlns="http://www.w3.org/2000/svg" xmlns:xlink="http://www.w3.org/1999/xlink" x="0px" y="0px"
	 viewBox="0 0 512 512" style="enable-background:new 0 0 512 512;" xml:space="preserve">
<g>
	<path style="fill:#8A6746;" d="M511.934,43.915c-0.68,11.814-6.383,22.811-15.654,30.168l-75.309,59.781l-21.42-21.42
		l-21.409-21.42l59.77-75.309c7.356-9.271,18.354-14.974,30.168-15.644c11.803-0.691,23.387,3.725,31.748,12.096
		C508.197,20.528,512.603,32.112,511.934,43.915z"/>
	<path style="fill:#8A6746;" d="M133.861,420.973L74.08,496.282c-7.356,9.271-18.343,14.974-30.157,15.654
		c-0.795,0.042-1.591,0.063-2.375,0.063c-10.977,0-21.577-4.363-29.383-12.17c-8.371-8.361-12.776-19.944-12.096-31.758
		c0.67-11.803,6.373-22.801,15.644-30.157l75.309-59.77l21.42,21.409L133.861,420.973z"/>
</g>
<g>
	<path style="fill:#664B33;" d="M112.441,399.554l21.42,21.42L74.08,496.282c-7.356,9.271-18.343,14.974-30.157,15.654
		c-0.795,0.042-1.591,0.063-2.375,0.063c-10.977,0-21.577-4.363-29.383-12.17L112.441,399.554z"/>
	<path style="fill:#664B33;" d="M511.934,43.915c-0.68,11.814-6.383,22.811-15.654,30.168l-75.309,59.781l-21.42-21.42
		L499.827,12.168C508.197,20.528,512.603,32.112,511.934,43.915z"/>
</g>
<path style="fill:#DFCCBE;" d="M421.755,186.215L186.212,421.758c-12.818,12.818-29.864,19.871-47.988,19.871
	s-35.169-7.053-47.988-19.871c-12.818-12.818-19.871-29.864-19.871-47.988s7.053-35.169,19.871-47.977L332.1,83.929
	c11.134-11.134,25.93-17.266,41.667-17.266s30.544,6.132,41.667,17.266l6.32,6.31C448.208,116.703,448.208,159.751,421.755,186.215z
	"/>
<path style="fill:#C9AD91;" d="M421.755,186.215L186.212,421.758c-12.818,12.818-29.864,19.871-47.988,19.871
	s-35.169-7.053-47.988-19.871L421.755,90.239C448.208,116.703,448.208,159.751,421.755,186.215z"/>
<g>
</g>
<g>
</g>
<g>
</g>
<g>
</g>
<g>
</g>
<g>
</g>
<g>
</g>
<g>
</g>
<g>
</g>
<g>
</g>
<g>
</g>
<g>
</g>
<g>
</g>
<g>
</g>
<g>
</g>
</svg>
