<?xml version="1.0" encoding="iso-8859-1"?>
<!-- Generator: Adobe Illustrator 19.0.0, SVG Export Plug-In . SVG Version: 6.00 Build 0)  -->
<svg version="1.1" id="Layer_1" xmlns="http://www.w3.org/2000/svg" xmlns:xlink="http://www.w3.org/1999/xlink" x="0px" y="0px"
	 viewBox="0 0 512 512" style="enable-background:new 0 0 512 512;" xml:space="preserve">
<path style="fill:#FF9A00;" d="M378.399,239.971V512l0,0H133.601V239.971c0-16.123,3.187-31.828,9.456-46.676L204.79,47.177h102.42
	l61.733,146.119C375.212,208.144,378.399,223.848,378.399,239.971z"/>
<path style="fill:#FF8900;" d="M378.399,239.971V512l0,0H256V47.177h51.21l61.733,146.119
	C375.212,208.144,378.399,223.848,378.399,239.971z"/>
<rect x="133.6" y="426.97" style="fill:#FFDBA8;" width="244.8" height="31.347"/>
<rect x="256" y="426.97" style="fill:#FFC473;" width="122.4" height="31.347"/>
<g>
	<rect x="240.83" y="195.4" style="fill:#00AD94;" width="31.347" height="66.08"/>
	<path style="fill:#00AD94;" d="M192.591,236.641c0,0,37.751,19.318,53.096-14.462C245.688,222.179,216.4,199.472,192.591,236.641z"
		/>
	<path style="fill:#00AD94;" d="M319.404,236.638c0,0-29.832,15.266-47.229-5.078c-2.184-2.539-4.159-5.632-5.862-9.383
		c0,0,2.194-1.693,5.862-3.406C281.913,214.235,302.111,209.627,319.404,236.638z"/>
</g>
<path style="fill:#FF3D63;" d="M313.971,314.765c0,17.721-5.527,34.544-15.579,47.355c-10.773,13.73-26.039,21.608-41.89,21.608
	c-0.167,0-0.334,0-0.502-0.01c-15.673-0.157-30.73-8.014-41.378-21.598c-10.052-12.81-15.59-29.633-15.59-47.355
	c0-17.721,5.538-34.544,15.59-47.355c10.648-13.584,25.704-21.441,41.378-21.598c0.167-0.01,0.334-0.01,0.502-0.01
	c15.851,0,31.117,7.879,41.89,21.608C308.443,280.221,313.971,297.044,313.971,314.765z"/>
<path style="fill:#008878;" d="M319.404,236.638c0,0-29.832,15.266-47.229-5.078v29.915H256v-66.079h16.175v23.374
	C281.913,214.235,302.111,209.627,319.404,236.638z"/>
<path style="fill:#FF0335;" d="M313.971,314.765c0,17.721-5.527,34.544-15.579,47.355c-10.773,13.73-26.039,21.608-41.89,21.608
	c-0.167,0-0.334,0-0.502-0.01V245.812c0.167-0.01,0.334-0.01,0.502-0.01c15.851,0,31.117,7.879,41.89,21.608
	C308.443,280.221,313.971,297.044,313.971,314.765z"/>
<rect x="167.44" style="fill:#00AD94;" width="179.63" height="78.52"/>
<rect x="256" style="fill:#008878;" width="91.07" height="78.52"/>
<g>
</g>
<g>
</g>
<g>
</g>
<g>
</g>
<g>
</g>
<g>
</g>
<g>
</g>
<g>
</g>
<g>
</g>
<g>
</g>
<g>
</g>
<g>
</g>
<g>
</g>
<g>
</g>
<g>
</g>
</svg>
