<?xml version="1.0" encoding="iso-8859-1"?>
<!-- Generator: Adobe Illustrator 19.0.0, SVG Export Plug-In . SVG Version: 6.00 Build 0)  -->
<svg version="1.1" id="Layer_1" xmlns="http://www.w3.org/2000/svg" xmlns:xlink="http://www.w3.org/1999/xlink" x="0px" y="0px"
	 viewBox="0 0 512 512" style="enable-background:new 0 0 512 512;" xml:space="preserve">
<path style="fill:#00AD94;" d="M353.469,251.873v223.932c0,19.958-16.238,36.195-36.195,36.195H194.728
	c-19.958,0-36.195-16.238-36.195-36.195V251.873c0-29.048,10.867-56.79,30.595-78.117l27.052-29.257V0h79.663v144.541l27.031,29.215
	C342.602,195.082,353.469,222.824,353.469,251.873z"/>
<path style="fill:#008878;" d="M353.469,251.873v223.932c0,19.958-16.238,36.195-36.195,36.195h-61.273V0h39.842v144.541
	l27.031,29.215C342.602,195.082,353.469,222.824,353.469,251.873z"/>
<rect x="158.531" y="264.16" style="fill:#FFC473;" width="121.5" height="173.41"/>
<rect x="256.001" y="264.16" style="fill:#FF9B00;" width="24.03" height="173.41"/>
<rect x="158.531" y="264.16" style="fill:#DFCCBE;" width="121.5" height="46.947"/>
<rect x="256.001" y="264.16" style="fill:#C9AD91;" width="24.03" height="46.947"/>
<rect x="208.981" style="fill:#FF3D63;" width="94.04" height="31.347"/>
<rect x="256.001" style="fill:#FF0335;" width="47.02" height="31.347"/>
<g>
</g>
<g>
</g>
<g>
</g>
<g>
</g>
<g>
</g>
<g>
</g>
<g>
</g>
<g>
</g>
<g>
</g>
<g>
</g>
<g>
</g>
<g>
</g>
<g>
</g>
<g>
</g>
<g>
</g>
</svg>
